# xmcd
#
# Track frame offsets: 
#        150
#        12750
#        21225
#        35850
#        52050
#        62475
#        74025
#        87000
#        98100
#        112275
#        126225
#        140175
#        153300
#        165900
#
# Disc length: 2388 seconds
#
# Revision: 1
# Processed by: cddbd v1.5.2PL0 Copyright (c) Steve Scherf et al.
# Submitted via: ExactAudioCopy v0.95b4
#
DISCID=c709520e
DTITLE=Kieran McGilligan - Waltzing An Angel Tonight
DYEAR=1996
DGENRE=Country
TTITLE0=You Lied To Me
TTITLE1=That's The Way I Feel
TTITLE2=Waltzing An Angel Tonight
TTITLE3=The B-Bop Cat
TTITLE4=Left To Right Or Right To Wrong
TTITLE5=I'll Settle For Old Ireland
TTITLE6=This Lonely Bed I've Made
TTITLE7=Is My Home Still Up There
TTITLE8=The She Just Left Me Lounge
TTITLE9=On The Wings Of A Dove
TTITLE10=Healing Hands Of Time
TTITLE11=Love Put A Song In My Heart
TTITLE12=The Borderline Of Galway And Mayo
TTITLE13=I Never Once Stopped Loving You
EXTD=
EXTT0=
EXTT1=
EXTT2=
EXTT3=
EXTT4=
EXTT5=
EXTT6=
EXTT7=
EXTT8=
EXTT9=
EXTT10=
EXTT11=
EXTT12=
EXTT13=
PLAYORDER=
